<?xml version="1.0" encoding="UTF-8"?>
<svg width="12px" height="12px" viewBox="0 0 12 12" version="1.1" xmlns="http://www.w3.org/2000/svg" xmlns:xlink="http://www.w3.org/1999/xlink">
    <!-- Generator: Sketch 63.1 (92452) - https://sketch.com -->
    <title>+</title>
    <desc>Created with Sketch.</desc>
    <g id="---02.-Composition" stroke="none" stroke-width="1" fill="none" fill-rule="evenodd">
        <g id="01.Groups_02.Composition_i.Merge-with-a-copy" transform="translate(-747.000000, -246.000000)" fill="#4A90E2">
            <g id="Group-5" transform="translate(231.000000, 220.000000)">
                <path d="M515.007422,32.2680589 C515.007937,31.7734256 515.408788,31.3725747 515.903422,31.3720589 L521.177922,31.3665589 L521.177922,31.3665589 L521.183672,25.8523089 C521.184197,25.3488429 521.592205,24.9408339 522.095672,24.9403089 C522.597782,24.9397853 523.005248,25.3464021 523.005772,25.8485129 C523.005772,25.8491449 523.005772,25.8497769 523.005772,25.8504089 L523.000022,31.3646589 L523.000022,31.3646589 L528.370422,31.3590589 C528.863723,31.3585445 529.26404,31.7580277 529.264555,32.2513295 C529.264556,32.2519504 529.264556,32.2525713 529.264555,32.2531923 C529.264039,32.7478256 528.863188,33.1486765 528.368555,33.1491923 L522.998155,33.1547923 L522.998155,33.1547923 L522.992338,38.7329756 C522.991813,39.2364417 522.583804,39.6444506 522.080338,39.6449756 C521.578227,39.6454992 521.170762,39.2388824 521.170238,38.7367716 C521.170238,38.7361396 521.170238,38.7355076 521.170238,38.7348756 L521.176055,33.1566923 L521.176055,33.1566923 L515.901555,33.1621923 C515.408253,33.1627067 515.007936,32.7632235 515.007422,32.2699217 C515.007421,32.2693008 515.007421,32.2686799 515.007422,32.2680589 Z" id="+" transform="translate(522.135988, 32.292642) rotate(45.000000) translate(-522.135988, -32.292642) "></path>
            </g>
        </g>
    </g>
</svg>