<?xml version="1.0" encoding="UTF-8"?>
<svg width="20px" height="12px" viewBox="0 0 20 12" version="1.1" xmlns="http://www.w3.org/2000/svg" xmlns:xlink="http://www.w3.org/1999/xlink">
    <!-- Generator: Sketch 64 (93537) - https://sketch.com -->
    <title></title>
    <desc>Created with Sketch.</desc>
    <g id="Symbols" stroke="none" stroke-width="1" fill="none" fill-rule="evenodd">
        <g id="Blocs-/-Groupes-/-Invitations" transform="translate(-621.000000, -31.000000)" fill="#9B9B9B" fill-rule="nonzero">
            <path d="M635.560547,47.2304688 C635.749349,47.2304688 635.908854,47.1653646 636.039062,47.0351562 C636.169271,46.9049479 636.234375,46.7486979 636.234375,46.5664062 C636.234375,46.3841146 636.169271,46.2278646 636.039062,46.0976562 L636.039062,46.0976562 L627.25,37.3085938 L636.15625,28.4023438 C636.286458,28.2721354 636.351562,28.1126302 636.351562,27.9238281 C636.351562,27.735026 636.286458,27.5755208 636.15625,27.4453125 C636.091146,27.3802083 636.019531,27.3313802 635.941406,27.2988281 C635.863281,27.266276 635.778646,27.25 635.6875,27.25 C635.609375,27.25 635.527995,27.266276 635.443359,27.2988281 C635.358724,27.3313802 635.283854,27.3802083 635.21875,27.4453125 L635.21875,27.4453125 L625.824219,36.8398438 C625.69401,36.9700521 625.628906,37.1263021 625.628906,37.3085938 C625.628906,37.4908854 625.69401,37.6471354 625.824219,37.7773438 L625.824219,37.7773438 L635.082031,47.0351562 C635.21224,47.1653646 635.371745,47.2304688 635.560547,47.2304688 Z" id="" transform="translate(630.990234, 37.240234) scale(1, -1) rotate(-90.000000) translate(-630.990234, -37.240234) "></path>
        </g>
    </g>
</svg>