<?xml version="1.0" encoding="UTF-8"?>
<svg width="31px" height="34px" viewBox="0 0 31 34" version="1.1" xmlns="http://www.w3.org/2000/svg" xmlns:xlink="http://www.w3.org/1999/xlink">
    <!-- Generator: Sketch 61.2 (89653) - https://sketch.com -->
    <title>icone femme</title>
    <desc>Created with Sketch.</desc>
    <defs>
        <path d="M15.3731696,0.143004348 C23.8631261,0.143004348 30.7460246,7.03219275 30.7460246,15.529787 C30.7460246,24.0273812 23.8631261,30.9165696 15.3731696,30.9165696 C6.88276377,30.9165696 -0.000134782609,24.0273812 -0.000134782609,15.529787 C-0.000134782609,7.03219275 6.88276377,0.143004348 15.3731696,0.143004348" id="path-1"></path>
        <path d="M30.7460246,15.529787 C30.7460246,24.0273812 23.8631261,30.9165696 15.3731696,30.9165696 C6.88276377,30.9165696 -0.000134782609,24.0273812 -0.000134782609,15.529787 C-0.000134782609,7.03219275 6.88276377,0.143004348 15.3731696,0.143004348 C23.8631261,0.143004348 30.7460246,7.03219275 30.7460246,15.529787 Z" id="path-3"></path>
    </defs>
    <g id="icone-femme" stroke="none" stroke-width="1" fill="none" fill-rule="evenodd">
        <g id="Group-9">
            <mask id="mask-2" fill="white">
                <use xlink:href="#path-1"></use>
            </mask>
            <use id="Mask" fill="#F5A623" xlink:href="#path-1"></use>
            <path d="M23.9295371,13.3992646 C25.4235973,13.3992646 26.8400587,15.1781549 25.4235973,17.2397471 C28.1976586,17.6724075 28.7847596,20.0791179 27.7950914,21.8888583 C30.0819839,21.679405 30.0819839,23.344824 30.0819839,24.1771764 C28.3230784,28.9084637 23.9545832,31.1825499 16.9764982,30.9994349 L16.9764982,12.359375 C20.6158173,13.0526347 22.933497,13.3992646 23.9295371,13.3992646 Z" id="Path-8" fill="#B67029" fill-rule="nonzero" mask="url(#mask-2)"></path>
            <path d="M7.12894493,13.3992646 C8.12498506,13.3992646 10.4426647,13.0526347 14.0819839,12.359375 L14.0819839,30.9994349 C7.10389882,31.1825499 2.73540359,28.9084637 0.976498161,24.1771764 C0.976498161,23.344824 0.976498161,21.679405 3.26339065,21.8888583 C2.27372246,20.0791179 2.86082338,17.6724075 5.63488473,17.2397471 C4.21842331,15.1781549 5.63488473,13.3992646 7.12894493,13.3992646 Z" id="Path-8" fill="#B67029" fill-rule="nonzero" mask="url(#mask-2)"></path>
        </g>
        <g id="Group-7" transform="translate(0.000000, 3.000000)">
            <mask id="mask-4" fill="white">
                <use xlink:href="#path-3"></use>
            </mask>
            <use id="Mask" fill="#F5A623" opacity="0" xlink:href="#path-3"></use>
            <ellipse id="Oval-14" fill="#B4915D" fill-rule="nonzero" mask="url(#mask-4)" cx="16" cy="25.5" rx="14" ry="8.5"></ellipse>
        </g>
        <path d="M15.5,30 C12.996992,30 10,25.5898271 10,22.1683692 C10,18.8384759 11.6556985,18 15.5,18 C19.3443015,18 21,18.8384759 21,22.1683692 C21,25.5898271 18.003008,30 15.5,30 Z" id="Oval-13" stroke="#F5A623" stroke-width="2" fill="#F1F2F7" fill-rule="nonzero"></path>
        <path d="M15.5,26 C18.2943441,26 20,21.611398 20,18.864835 C20,16.1182719 17.9852814,16 15.5,16 C13.0147186,16 11,16.1182719 11,18.864835 C11,21.611398 12.7056559,26 15.5,26 Z" id="Oval-13" fill="#D3D3D6" fill-rule="nonzero"></path>
        <path d="M15.5,24.9918051 C18.5134027,24.9918051 23,19.4332334 23,14.6538462 C23,9.8744589 19.6421356,6 15.5,6 C11.3578644,6 8,9.8744589 8,14.6538462 C8,19.4332334 12.4865973,24.9918051 15.5,24.9918051 Z" id="Oval-12" fill="#F1F2F7" fill-rule="nonzero"></path>
        <path d="M15.5,4 C21.65625,4 24,8.28247265 24,13.5651704 C22.5712391,13.2940859 21.2416604,13.0859071 19.9606012,12.9406341 C19.8531921,12.1000117 19.705605,11.41758 19.5194648,10.8932413 C19.2743877,10.2028828 18.7678994,9.23846908 18,8 C18.2528726,9.37433652 18.3793089,10.4050889 18.3793089,11.0922572 C18.3793089,11.5579815 18.321232,12.1205832 18.2050782,12.7800622 C14.6556773,12.5317874 11.310146,12.7938277 7,13.5651704 C7,8.28247265 9.34375,4 15.5,4 Z" id="Combined-Shape" fill="#B67029" fill-rule="nonzero"></path>
    </g>
</svg>