<?xml version="1.0" encoding="UTF-8"?>
<svg width="70px" height="70px" viewBox="0 0 70 70" version="1.1" xmlns="http://www.w3.org/2000/svg" xmlns:xlink="http://www.w3.org/1999/xlink">
    <!-- Generator: Sketch 61.2 (89653) - https://sketch.com -->
    <title>Panneau latéral / Utilisateurs / Avatars / Groupe</title>
    <desc>Created with Sketch.</desc>
    <defs>
        <path d="M29.7545217,0.276782609 C46.1866957,0.276782609 59.5084348,13.6106957 59.5084348,30.0576522 C59.5084348,46.5046087 46.1866957,59.8385217 29.7545217,59.8385217 C13.3214783,59.8385217 -0.000260869565,46.5046087 -0.000260869565,30.0576522 C-0.000260869565,13.6106957 13.3214783,0.276782609 29.7545217,0.276782609" id="path-1"></path>
        <path d="M30.7140309,15.5136269 C30.7140309,24.0023787 23.8382945,30.8843983 15.3571725,30.8843983 C6.87560168,30.8843983 -0.000134642357,24.0023787 -0.000134642357,15.5136269 C-0.000134642357,7.02487518 6.87560168,0.14285554 15.3571725,0.14285554 C23.8382945,0.14285554 30.7140309,7.02487518 30.7140309,15.5136269 Z" id="path-3"></path>
        <path d="M30.7140309,15.5136269 C30.7140309,24.0023787 23.8382945,30.8843983 15.3571725,30.8843983 C6.87560168,30.8843983 -0.000134642357,24.0023787 -0.000134642357,15.5136269 C-0.000134642357,7.02487518 6.87560168,0.14285554 15.3571725,0.14285554 C23.8382945,0.14285554 30.7140309,7.02487518 30.7140309,15.5136269 Z" id="path-5"></path>
        <path d="M30.7140309,15.5136269 C30.7140309,24.0023787 23.8382945,30.8843983 15.3571725,30.8843983 C6.87560168,30.8843983 -0.000134642357,24.0023787 -0.000134642357,15.5136269 C-0.000134642357,7.02487518 6.87560168,0.14285554 15.3571725,0.14285554 C23.8382945,0.14285554 30.7140309,7.02487518 30.7140309,15.5136269 Z" id="path-7"></path>
    </defs>
    <g id="Panneau-latéral-/-Utilisateurs-/-Avatars-/-Groupe" stroke="none" stroke-width="1" fill="none" fill-rule="evenodd">
        <g id="icone-groupe-géré" transform="translate(5.000000, 10.000000)">
            <g id="Group-9">
                <mask id="mask-2" fill="white">
                    <use xlink:href="#path-1"></use>
                </mask>
                <use id="Mask" fill="#F5A623" xlink:href="#path-1"></use>
                <g id="Couleur/Secondaire" mask="url(#mask-2)" fill="#F5A623">
                    <rect id="Rectangle-3" x="0" y="0" width="60" height="60"></rect>
                </g>
            </g>
            <g id="Perso-1-Copy" transform="translate(15.483871, 0.000000)">
                <g id="Group-7" transform="translate(0.000000, 1.811534)">
                    <mask id="mask-4" fill="white">
                        <use xlink:href="#path-3"></use>
                    </mask>
                    <use id="Mask" fill="#F5A623" opacity="0" xlink:href="#path-3"></use>
                    <ellipse id="Oval-14" fill="#B4915D" fill-rule="nonzero" mask="url(#mask-4)" cx="15.9833507" cy="25.4734651" rx="13.9854318" ry="8.49115505"></ellipse>
                    <path d="M15.3986502,24.9739854 C17.1759652,24.9739854 21.2525841,23.7987447 21.2525841,20.4623627 C21.2525841,17.1259807 17.9665662,16.9823101 15.483871,16.9823101 C13.0011757,16.9823101 9.54471638,17.1259807 9.54471638,20.4623627 C9.54471638,23.7987447 13.6213353,24.9739854 15.3986502,24.9739854 Z M15.3986502,26.9719043 C11.6518992,26.9719043 7.54679754,24.6210631 7.54679754,20.4623627 C7.54679754,18.0713925 8.80113922,16.4028517 10.8643395,15.6071116 C12.1520264,15.1104734 13.4458507,14.9843913 15.483871,14.9843913 C17.5141063,14.9843913 18.7777782,15.1105292 20.04157,15.6163014 C22.0498108,16.4200038 23.2505029,18.0907576 23.2505029,20.4623627 C23.2505029,24.6210631 19.1454013,26.9719043 15.3986502,26.9719043 Z" id="Oval-13" fill="#F5A623" fill-rule="nonzero" mask="url(#mask-4)"></path>
                    <path d="M15.3986502,24.9739854 C17.1759652,24.9739854 21.2525841,23.7987447 21.2525841,20.4623627 C21.2525841,17.1259807 17.9665662,16.9823101 15.483871,16.9823101 C13.0011757,16.9823101 9.54471638,17.1259807 9.54471638,20.4623627 C9.54471638,23.7987447 13.6213353,24.9739854 15.3986502,24.9739854 Z" id="Oval-13" fill="#F1F2F7" fill-rule="nonzero" mask="url(#mask-4)"></path>
                </g>
                <path d="M15.483871,26.9728246 C19.0894763,26.9728246 21.2903226,21.8763835 21.2903226,18.6868264 C21.2903226,15.4972694 18.6906856,15.3599213 15.483871,15.3599213 C12.2770563,15.3599213 9.67741935,15.4972694 9.67741935,18.6868264 C9.67741935,21.8763835 11.8782656,26.9728246 15.483871,26.9728246 Z" id="Oval-13" fill="#D3D3D6" fill-rule="nonzero"></path>
                <path d="M15.483871,23.1018568 C18.5944802,23.1018568 23.2258065,18.003514 23.2258065,13.6198421 C23.2258065,9.23617019 19.7596239,5.68250197 15.483871,5.68250197 C11.2081181,5.68250197 7.74193548,9.23617019 7.74193548,13.6198421 C7.74193548,18.003514 12.3732617,23.1018568 15.483871,23.1018568 Z" id="Oval-12" fill="#F1F2F7" fill-rule="nonzero"></path>
                <path d="M11.2063604,10.2838189 C12.3104771,9.54749612 13.5138349,11.8998485 15.6372143,11.8998485 C17.7605937,11.8998485 18.9072871,9.73295578 19.8686241,10.2838189 C20.5095155,10.651061 20.6356834,11.4401709 20.2471277,12.6511486 C21.0086547,11.5441132 21.5657544,11.2936798 21.9184268,11.8998485 C22.2710993,12.5060172 22.2710993,14.3045361 21.9184268,17.2954052 C22.7900132,16.1796733 23.2258065,14.1290077 23.2258065,11.1434084 C23.2258065,6.6650095 19.9006147,3.7470181 15.1971074,3.7470181 C10.4936001,3.7470181 7.74193548,7.30544986 7.74193548,10.5212117 C7.74193548,12.6650528 8.19903829,14.9231174 9.11324389,17.2954052 C8.78984278,14.1992342 8.85785466,12.4007153 9.31727955,11.8998485 C9.77670444,11.3989818 10.406398,11.6494152 11.2063604,12.6511486 C10.4702825,11.5638107 10.4702825,10.7747008 11.2063604,10.2838189 Z" id="Path-11" fill="#B67029" fill-rule="nonzero"></path>
                <polygon id="Path-12" fill="#B67029" fill-rule="nonzero" points="13.5483871 3.86380318 13.5483871 2.7154426 14.3108302 3.75123023 14.3108302 1.81153423 15.483871 4.12957457 14.0877615 5.68250197"></polygon>
            </g>
            <g id="Perso-1-Copy-2" transform="translate(0.000000, 21.290323)">
                <g id="Group-7" transform="translate(0.000000, 1.811534)">
                    <mask id="mask-6" fill="white">
                        <use xlink:href="#path-5"></use>
                    </mask>
                    <use id="Mask" fill="#F5A623" opacity="0" xlink:href="#path-5"></use>
                    <ellipse id="Oval-14" fill="#B4915D" fill-rule="nonzero" mask="url(#mask-6)" cx="15.9833507" cy="25.4734651" rx="13.9854318" ry="8.49115505"></ellipse>
                    <path d="M15.3986502,24.9739854 C17.1759652,24.9739854 21.2525841,23.7987447 21.2525841,20.4623627 C21.2525841,17.1259807 17.9665662,16.9823101 15.483871,16.9823101 C13.0011757,16.9823101 9.54471638,17.1259807 9.54471638,20.4623627 C9.54471638,23.7987447 13.6213353,24.9739854 15.3986502,24.9739854 Z M15.3986502,26.9719043 C11.6518992,26.9719043 7.54679754,24.6210631 7.54679754,20.4623627 C7.54679754,18.0713925 8.80113922,16.4028517 10.8643395,15.6071116 C12.1520264,15.1104734 13.4458507,14.9843913 15.483871,14.9843913 C17.5141063,14.9843913 18.7777782,15.1105292 20.04157,15.6163014 C22.0498108,16.4200038 23.2505029,18.0907576 23.2505029,20.4623627 C23.2505029,24.6210631 19.1454013,26.9719043 15.3986502,26.9719043 Z" id="Oval-13" fill="#F5A623" fill-rule="nonzero" mask="url(#mask-6)"></path>
                    <path d="M15.3986502,24.9739854 C17.1759652,24.9739854 21.2525841,23.7987447 21.2525841,20.4623627 C21.2525841,17.1259807 17.9665662,16.9823101 15.483871,16.9823101 C13.0011757,16.9823101 9.54471638,17.1259807 9.54471638,20.4623627 C9.54471638,23.7987447 13.6213353,24.9739854 15.3986502,24.9739854 Z" id="Oval-13" fill="#F1F2F7" fill-rule="nonzero" mask="url(#mask-6)"></path>
                </g>
                <path d="M15.483871,26.9728246 C19.0894763,26.9728246 21.2903226,21.8763835 21.2903226,18.6868264 C21.2903226,15.4972694 18.6906856,15.3599213 15.483871,15.3599213 C12.2770563,15.3599213 9.67741935,15.4972694 9.67741935,18.6868264 C9.67741935,21.8763835 11.8782656,26.9728246 15.483871,26.9728246 Z" id="Oval-13" fill="#D3D3D6" fill-rule="nonzero"></path>
                <path d="M15.483871,23.1018568 C18.5944802,23.1018568 23.2258065,18.003514 23.2258065,13.6198421 C23.2258065,9.23617019 19.7596239,5.68250197 15.483871,5.68250197 C11.2081181,5.68250197 7.74193548,9.23617019 7.74193548,13.6198421 C7.74193548,18.003514 12.3732617,23.1018568 15.483871,23.1018568 Z" id="Oval-12" fill="#F1F2F7" fill-rule="nonzero"></path>
                <path d="M11.2063604,10.2838189 C12.3104771,9.54749612 13.5138349,11.8998485 15.6372143,11.8998485 C17.7605937,11.8998485 18.9072871,9.73295578 19.8686241,10.2838189 C20.5095155,10.651061 20.6356834,11.4401709 20.2471277,12.6511486 C21.0086547,11.5441132 21.5657544,11.2936798 21.9184268,11.8998485 C22.2710993,12.5060172 22.2710993,14.3045361 21.9184268,17.2954052 C22.7900132,16.1796733 23.2258065,14.1290077 23.2258065,11.1434084 C23.2258065,6.6650095 19.9006147,3.7470181 15.1971074,3.7470181 C10.4936001,3.7470181 7.74193548,7.30544986 7.74193548,10.5212117 C7.74193548,12.6650528 8.19903829,14.9231174 9.11324389,17.2954052 C8.78984278,14.1992342 8.85785466,12.4007153 9.31727955,11.8998485 C9.77670444,11.3989818 10.406398,11.6494152 11.2063604,12.6511486 C10.4702825,11.5638107 10.4702825,10.7747008 11.2063604,10.2838189 Z" id="Path-11" fill="#B67029" fill-rule="nonzero"></path>
                <polygon id="Path-12" fill="#B67029" fill-rule="nonzero" points="13.5483871 3.86380318 13.5483871 2.7154426 14.3108302 3.75123023 14.3108302 1.81153423 15.483871 4.12957457 14.0877615 5.68250197"></polygon>
            </g>
            <g id="Perso-1" transform="translate(29.032258, 21.290323)">
                <g id="Group-7" transform="translate(0.000000, 1.811534)">
                    <mask id="mask-8" fill="white">
                        <use xlink:href="#path-7"></use>
                    </mask>
                    <use id="Mask" fill="#F5A623" opacity="0" xlink:href="#path-7"></use>
                    <ellipse id="Oval-14" fill="#B4915D" fill-rule="nonzero" mask="url(#mask-8)" cx="15.9833507" cy="25.4734651" rx="13.9854318" ry="8.49115505"></ellipse>
                    <path d="M15.3986502,24.9739854 C17.1759652,24.9739854 21.2525841,23.7987447 21.2525841,20.4623627 C21.2525841,17.1259807 17.9665662,16.9823101 15.483871,16.9823101 C13.0011757,16.9823101 9.54471638,17.1259807 9.54471638,20.4623627 C9.54471638,23.7987447 13.6213353,24.9739854 15.3986502,24.9739854 Z M15.3986502,26.9719043 C11.6518992,26.9719043 7.54679754,24.6210631 7.54679754,20.4623627 C7.54679754,18.0713925 8.80113922,16.4028517 10.8643395,15.6071116 C12.1520264,15.1104734 13.4458507,14.9843913 15.483871,14.9843913 C17.5141063,14.9843913 18.7777782,15.1105292 20.04157,15.6163014 C22.0498108,16.4200038 23.2505029,18.0907576 23.2505029,20.4623627 C23.2505029,24.6210631 19.1454013,26.9719043 15.3986502,26.9719043 Z" id="Oval-13" fill="#F5A623" fill-rule="nonzero" mask="url(#mask-8)"></path>
                    <path d="M15.3986502,24.9739854 C17.1759652,24.9739854 21.2525841,23.7987447 21.2525841,20.4623627 C21.2525841,17.1259807 17.9665662,16.9823101 15.483871,16.9823101 C13.0011757,16.9823101 9.54471638,17.1259807 9.54471638,20.4623627 C9.54471638,23.7987447 13.6213353,24.9739854 15.3986502,24.9739854 Z" id="Oval-13" fill="#F1F2F7" fill-rule="nonzero" mask="url(#mask-8)"></path>
                </g>
                <path d="M15.483871,26.9728246 C19.0894763,26.9728246 21.2903226,21.8763835 21.2903226,18.6868264 C21.2903226,15.4972694 18.6906856,15.3599213 15.483871,15.3599213 C12.2770563,15.3599213 9.67741935,15.4972694 9.67741935,18.6868264 C9.67741935,21.8763835 11.8782656,26.9728246 15.483871,26.9728246 Z" id="Oval-13" fill="#D3D3D6" fill-rule="nonzero"></path>
                <path d="M15.483871,23.1018568 C18.5944802,23.1018568 23.2258065,18.003514 23.2258065,13.6198421 C23.2258065,9.23617019 19.7596239,5.68250197 15.483871,5.68250197 C11.2081181,5.68250197 7.74193548,9.23617019 7.74193548,13.6198421 C7.74193548,18.003514 12.3732617,23.1018568 15.483871,23.1018568 Z" id="Oval-12" fill="#F1F2F7" fill-rule="nonzero"></path>
                <path d="M11.2063604,10.2838189 C12.3104771,9.54749612 13.5138349,11.8998485 15.6372143,11.8998485 C17.7605937,11.8998485 18.9072871,9.73295578 19.8686241,10.2838189 C20.5095155,10.651061 20.6356834,11.4401709 20.2471277,12.6511486 C21.0086547,11.5441132 21.5657544,11.2936798 21.9184268,11.8998485 C22.2710993,12.5060172 22.2710993,14.3045361 21.9184268,17.2954052 C22.7900132,16.1796733 23.2258065,14.1290077 23.2258065,11.1434084 C23.2258065,6.6650095 19.9006147,3.7470181 15.1971074,3.7470181 C10.4936001,3.7470181 7.74193548,7.30544986 7.74193548,10.5212117 C7.74193548,12.6650528 8.19903829,14.9231174 9.11324389,17.2954052 C8.78984278,14.1992342 8.85785466,12.4007153 9.31727955,11.8998485 C9.77670444,11.3989818 10.406398,11.6494152 11.2063604,12.6511486 C10.4702825,11.5638107 10.4702825,10.7747008 11.2063604,10.2838189 Z" id="Path-11" fill="#B67029" fill-rule="nonzero"></path>
                <polygon id="Path-12" fill="#B67029" fill-rule="nonzero" points="13.5483871 3.86380318 13.5483871 2.7154426 14.3108302 3.75123023 14.3108302 1.81153423 15.483871 4.12957457 14.0877615 5.68250197"></polygon>
            </g>
        </g>
    </g>
</svg>