<?xml version="1.0" encoding="UTF-8"?>
<svg width="31px" height="34px" viewBox="0 0 31 34" version="1.1" xmlns="http://www.w3.org/2000/svg" xmlns:xlink="http://www.w3.org/1999/xlink">
    <!-- Generator: Sketch 61.2 (89653) - https://sketch.com -->
    <title>icone groupe rejoint</title>
    <desc>Created with Sketch.</desc>
    <defs>
        <path d="M15.3731696,0.143004348 C23.8631261,0.143004348 30.7460246,7.03219275 30.7460246,15.529787 C30.7460246,24.0273812 23.8631261,30.9165696 15.3731696,30.9165696 C6.88276377,30.9165696 -0.000134782609,24.0273812 -0.000134782609,15.529787 C-0.000134782609,7.03219275 6.88276377,0.143004348 15.3731696,0.143004348" id="path-1"></path>
        <path d="M15.8689159,8.01537391 C15.8689159,12.401229 12.3164522,15.9569391 7.93453913,15.9569391 C3.5523942,15.9569391 -6.95652176e-05,12.401229 -6.95652176e-05,8.01537391 C-6.95652176e-05,3.62951884 3.5523942,0.0738086957 7.93453913,0.0738086957 C12.3164522,0.0738086957 15.8689159,3.62951884 15.8689159,8.01537391 Z" id="path-3"></path>
        <path d="M15.8689159,8.01537391 C15.8689159,12.401229 12.3164522,15.9569391 7.93453913,15.9569391 C3.5523942,15.9569391 -6.95652176e-05,12.401229 -6.95652176e-05,8.01537391 C-6.95652176e-05,3.62951884 3.5523942,0.0738086957 7.93453913,0.0738086957 C12.3164522,0.0738086957 15.8689159,3.62951884 15.8689159,8.01537391 Z" id="path-5"></path>
        <path d="M15.8689159,8.01537391 C15.8689159,12.401229 12.3164522,15.9569391 7.93453913,15.9569391 C3.5523942,15.9569391 -6.95652176e-05,12.401229 -6.95652176e-05,8.01537391 C-6.95652176e-05,3.62951884 3.5523942,0.0738086957 7.93453913,0.0738086957 C12.3164522,0.0738086957 15.8689159,3.62951884 15.8689159,8.01537391 Z" id="path-7"></path>
    </defs>
    <g id="icone-groupe-rejoint" stroke="none" stroke-width="1" fill="none" fill-rule="evenodd">
        <g id="Group-9">
            <mask id="mask-2" fill="white">
                <use xlink:href="#path-1"></use>
            </mask>
            <use id="Mask" fill="#F5A623" xlink:href="#path-1"></use>
            <g id="Couleur/Secondaire" mask="url(#mask-2)" fill="#F5A623">
                <rect id="Rectangle-3" x="0" y="0" width="31" height="31"></rect>
            </g>
        </g>
        <g id="Perso-1" transform="translate(18.000000, 3.000000)">
            <g id="Group-7" transform="translate(0.000000, 0.935959)">
                <mask id="mask-4" fill="white">
                    <use xlink:href="#path-3"></use>
                </mask>
                <use id="Mask" fill="#F5A623" opacity="0" xlink:href="#path-3"></use>
                <ellipse id="Oval-14" fill="#B4915D" fill-rule="nonzero" mask="url(#mask-4)" cx="8.25806452" cy="13.1612903" rx="7.22580645" ry="4.38709677"></ellipse>
                <path d="M7.95596929,12.9032258 C8.87424868,12.9032258 10.9805018,12.2960181 10.9805018,10.5722207 C10.9805018,8.84842335 9.28272587,8.77419355 8,8.77419355 C6.71727413,8.77419355 4.93143679,8.84842335 4.93143679,10.5722207 C4.93143679,12.2960181 7.0376899,12.9032258 7.95596929,12.9032258 Z M7.95596929,13.9354839 C6.02014791,13.9354839 3.89917873,12.7208826 3.89917873,10.5722207 C3.89917873,9.33688612 4.54725526,8.47480671 5.61324206,8.06367433 C6.27854695,7.80707793 6.94702284,7.74193548 8,7.74193548 C9.04895493,7.74193548 9.70185206,7.80710674 10.3548112,8.0684224 C11.3924022,8.48366863 12.0127598,9.34689143 12.0127598,10.5722207 C12.0127598,12.7208826 9.89179066,13.9354839 7.95596929,13.9354839 Z" id="Oval-13" fill="#F5A623" fill-rule="nonzero" mask="url(#mask-4)"></path>
                <path d="M7.95596929,12.9032258 C8.87424868,12.9032258 10.9805018,12.2960181 10.9805018,10.5722207 C10.9805018,8.84842335 9.28272587,8.77419355 8,8.77419355 C6.71727413,8.77419355 4.93143679,8.84842335 4.93143679,10.5722207 C4.93143679,12.2960181 7.0376899,12.9032258 7.95596929,12.9032258 Z" id="Oval-13" fill="#F1F2F7" fill-rule="nonzero" mask="url(#mask-4)"></path>
            </g>
            <path d="M8,13.9359594 C9.86289608,13.9359594 11,11.3027982 11,9.65486033 C11,8.00692251 9.65685425,7.93595935 8,7.93595935 C6.34314575,7.93595935 5,8.00692251 5,9.65486033 C5,11.3027982 6.13710392,13.9359594 8,13.9359594 Z" id="Oval-13" fill="#D3D3D6" fill-rule="nonzero"></path>
            <path d="M8,11.9359594 C9.60714813,11.9359594 12,9.30181556 12,7.03691841 C12,4.77202127 10.209139,2.93595935 8,2.93595935 C5.790861,2.93595935 4,4.77202127 4,7.03691841 C4,9.30181556 6.39285187,11.9359594 8,11.9359594 Z" id="Oval-12" fill="#F1F2F7" fill-rule="nonzero"></path>
            <path d="M5.78995286,5.31330643 C6.36041319,4.93287299 6.98214801,6.14825507 8.07922737,6.14825507 C9.17630673,6.14825507 9.76876499,5.02869382 10.2654558,5.31330643 C10.596583,5.50304817 10.6617697,5.91075496 10.461016,6.53642679 C10.8544716,5.96445848 11.1423065,5.8350679 11.3245205,6.14825507 C11.5067346,6.46144224 11.5067346,7.390677 11.3245205,8.93595935 C11.7748402,8.35949789 12,7.29998733 12,5.7574277 C12,3.44358824 10.2819843,1.93595935 7.85183884,1.93595935 C5.4216934,1.93595935 4,3.77448243 4,5.43595935 C4,6.54361064 4.23616978,7.7102773 4.70850934,8.93595935 C4.54141877,7.33627098 4.57655824,6.40703622 4.81392777,6.14825507 C5.05129729,5.88947393 5.37663899,6.0188645 5.78995286,6.53642679 C5.40964597,5.97463551 5.40964597,5.56692872 5.78995286,5.31330643 Z" id="Path-11" fill="#B67029" fill-rule="nonzero"></path>
            <polygon id="Path-12" fill="#B67029" fill-rule="nonzero" points="7 1.99629831 7 1.40297868 7.39392893 1.93813562 7.39392893 0.935959354 8 2.13361353 7.27867676 2.93595935"></polygon>
        </g>
        <g id="Perso-1-Copy" transform="translate(8.000000, 7.000000)">
            <g id="Group-7" transform="translate(0.000000, 0.935959)">
                <mask id="mask-6" fill="white">
                    <use xlink:href="#path-5"></use>
                </mask>
                <use id="Mask" fill="#F5A623" opacity="0" xlink:href="#path-5"></use>
                <ellipse id="Oval-14" fill="#B4915D" fill-rule="nonzero" mask="url(#mask-6)" cx="8.25806452" cy="13.1612903" rx="7.22580645" ry="4.38709677"></ellipse>
                <path d="M7.95596929,12.9032258 C8.87424868,12.9032258 10.9805018,12.2960181 10.9805018,10.5722207 C10.9805018,8.84842335 9.28272587,8.77419355 8,8.77419355 C6.71727413,8.77419355 4.93143679,8.84842335 4.93143679,10.5722207 C4.93143679,12.2960181 7.0376899,12.9032258 7.95596929,12.9032258 Z M7.95596929,13.9354839 C6.02014791,13.9354839 3.89917873,12.7208826 3.89917873,10.5722207 C3.89917873,9.33688612 4.54725526,8.47480671 5.61324206,8.06367433 C6.27854695,7.80707793 6.94702284,7.74193548 8,7.74193548 C9.04895493,7.74193548 9.70185206,7.80710674 10.3548112,8.0684224 C11.3924022,8.48366863 12.0127598,9.34689143 12.0127598,10.5722207 C12.0127598,12.7208826 9.89179066,13.9354839 7.95596929,13.9354839 Z" id="Oval-13" fill="#F5A623" fill-rule="nonzero" mask="url(#mask-6)"></path>
                <path d="M7.95596929,12.9032258 C8.87424868,12.9032258 10.9805018,12.2960181 10.9805018,10.5722207 C10.9805018,8.84842335 9.28272587,8.77419355 8,8.77419355 C6.71727413,8.77419355 4.93143679,8.84842335 4.93143679,10.5722207 C4.93143679,12.2960181 7.0376899,12.9032258 7.95596929,12.9032258 Z" id="Oval-13" fill="#F1F2F7" fill-rule="nonzero" mask="url(#mask-6)"></path>
            </g>
            <path d="M8,13.9359594 C9.86289608,13.9359594 11,11.3027982 11,9.65486033 C11,8.00692251 9.65685425,7.93595935 8,7.93595935 C6.34314575,7.93595935 5,8.00692251 5,9.65486033 C5,11.3027982 6.13710392,13.9359594 8,13.9359594 Z" id="Oval-13" fill="#D3D3D6" fill-rule="nonzero"></path>
            <path d="M8,11.9359594 C9.60714813,11.9359594 12,9.30181556 12,7.03691841 C12,4.77202127 10.209139,2.93595935 8,2.93595935 C5.790861,2.93595935 4,4.77202127 4,7.03691841 C4,9.30181556 6.39285187,11.9359594 8,11.9359594 Z" id="Oval-12" fill="#F1F2F7" fill-rule="nonzero"></path>
            <path d="M5.78995286,5.31330643 C6.36041319,4.93287299 6.98214801,6.14825507 8.07922737,6.14825507 C9.17630673,6.14825507 9.76876499,5.02869382 10.2654558,5.31330643 C10.596583,5.50304817 10.6617697,5.91075496 10.461016,6.53642679 C10.8544716,5.96445848 11.1423065,5.8350679 11.3245205,6.14825507 C11.5067346,6.46144224 11.5067346,7.390677 11.3245205,8.93595935 C11.7748402,8.35949789 12,7.29998733 12,5.7574277 C12,3.44358824 10.2819843,1.93595935 7.85183884,1.93595935 C5.4216934,1.93595935 4,3.77448243 4,5.43595935 C4,6.54361064 4.23616978,7.7102773 4.70850934,8.93595935 C4.54141877,7.33627098 4.57655824,6.40703622 4.81392777,6.14825507 C5.05129729,5.88947393 5.37663899,6.0188645 5.78995286,6.53642679 C5.40964597,5.97463551 5.40964597,5.56692872 5.78995286,5.31330643 Z" id="Path-11" fill="#B67029" fill-rule="nonzero"></path>
            <polygon id="Path-12" fill="#B67029" fill-rule="nonzero" points="7 1.99629831 7 1.40297868 7.39392893 1.93813562 7.39392893 0.935959354 8 2.13361353 7.27867676 2.93595935"></polygon>
        </g>
        <g id="Perso-1-Copy-2" transform="translate(-2.000000, 11.000000)">
            <g id="Group-7" transform="translate(0.000000, 0.935959)">
                <mask id="mask-8" fill="white">
                    <use xlink:href="#path-7"></use>
                </mask>
                <use id="Mask" fill="#F5A623" opacity="0" xlink:href="#path-7"></use>
                <ellipse id="Oval-14" fill="#B4915D" fill-rule="nonzero" mask="url(#mask-8)" cx="8.25806452" cy="13.1612903" rx="7.22580645" ry="4.38709677"></ellipse>
                <path d="M7.95596929,12.9032258 C8.87424868,12.9032258 10.9805018,12.2960181 10.9805018,10.5722207 C10.9805018,8.84842335 9.28272587,8.77419355 8,8.77419355 C6.71727413,8.77419355 4.93143679,8.84842335 4.93143679,10.5722207 C4.93143679,12.2960181 7.0376899,12.9032258 7.95596929,12.9032258 Z M7.95596929,13.9354839 C6.02014791,13.9354839 3.89917873,12.7208826 3.89917873,10.5722207 C3.89917873,9.33688612 4.54725526,8.47480671 5.61324206,8.06367433 C6.27854695,7.80707793 6.94702284,7.74193548 8,7.74193548 C9.04895493,7.74193548 9.70185206,7.80710674 10.3548112,8.0684224 C11.3924022,8.48366863 12.0127598,9.34689143 12.0127598,10.5722207 C12.0127598,12.7208826 9.89179066,13.9354839 7.95596929,13.9354839 Z" id="Oval-13" fill="#F5A623" fill-rule="nonzero" mask="url(#mask-8)"></path>
                <path d="M7.95596929,12.9032258 C8.87424868,12.9032258 10.9805018,12.2960181 10.9805018,10.5722207 C10.9805018,8.84842335 9.28272587,8.77419355 8,8.77419355 C6.71727413,8.77419355 4.93143679,8.84842335 4.93143679,10.5722207 C4.93143679,12.2960181 7.0376899,12.9032258 7.95596929,12.9032258 Z" id="Oval-13" fill="#F1F2F7" fill-rule="nonzero" mask="url(#mask-8)"></path>
            </g>
            <path d="M8,13.9359594 C9.86289608,13.9359594 11,11.3027982 11,9.65486033 C11,8.00692251 9.65685425,7.93595935 8,7.93595935 C6.34314575,7.93595935 5,8.00692251 5,9.65486033 C5,11.3027982 6.13710392,13.9359594 8,13.9359594 Z" id="Oval-13" fill="#D3D3D6" fill-rule="nonzero"></path>
            <path d="M8,11.9359594 C9.60714813,11.9359594 12,9.30181556 12,7.03691841 C12,4.77202127 10.209139,2.93595935 8,2.93595935 C5.790861,2.93595935 4,4.77202127 4,7.03691841 C4,9.30181556 6.39285187,11.9359594 8,11.9359594 Z" id="Oval-12" fill="#F1F2F7" fill-rule="nonzero"></path>
            <path d="M5.78995286,5.31330643 C6.36041319,4.93287299 6.98214801,6.14825507 8.07922737,6.14825507 C9.17630673,6.14825507 9.76876499,5.02869382 10.2654558,5.31330643 C10.596583,5.50304817 10.6617697,5.91075496 10.461016,6.53642679 C10.8544716,5.96445848 11.1423065,5.8350679 11.3245205,6.14825507 C11.5067346,6.46144224 11.5067346,7.390677 11.3245205,8.93595935 C11.7748402,8.35949789 12,7.29998733 12,5.7574277 C12,3.44358824 10.2819843,1.93595935 7.85183884,1.93595935 C5.4216934,1.93595935 4,3.77448243 4,5.43595935 C4,6.54361064 4.23616978,7.7102773 4.70850934,8.93595935 C4.54141877,7.33627098 4.57655824,6.40703622 4.81392777,6.14825507 C5.05129729,5.88947393 5.37663899,6.0188645 5.78995286,6.53642679 C5.40964597,5.97463551 5.40964597,5.56692872 5.78995286,5.31330643 Z" id="Path-11" fill="#B67029" fill-rule="nonzero"></path>
            <polygon id="Path-12" fill="#B67029" fill-rule="nonzero" points="7 1.99629831 7 1.40297868 7.39392893 1.93813562 7.39392893 0.935959354 8 2.13361353 7.27867676 2.93595935"></polygon>
        </g>
    </g>
</svg>