<?xml version="1.0" encoding="UTF-8"?>
<svg width="10px" height="24px" viewBox="0 0 10 24" version="1.1" xmlns="http://www.w3.org/2000/svg" xmlns:xlink="http://www.w3.org/1999/xlink">
    <!-- Generator: Sketch 62 (91390) - https://sketch.com -->
    <title>Group</title>
    <desc>Created with Sketch.</desc>
    <g id="Symbols" stroke="none" stroke-width="1" fill="none" fill-rule="evenodd">
        <g id="Panneau-latéral-/-Réduit-/-Icône-ouvrir" transform="translate(-5.000000, 3.000000)">
            <g id="Group" transform="translate(10.000000, 9.000000) scale(1, -1) translate(-10.000000, -9.000000) translate(5.000000, -3.000000)">
                <path d="M6.08929178,18.7142889 C6.28014022,18.7142889 6.4285779,18.5658513 6.4285779,18.3750028 L6.4285779,5.1428442 L8.80358073,5.1428442 C8.94141572,5.1428442 9.05804532,5.05802267 9.11105878,4.94139307 C9.16407223,4.81416077 9.14286685,4.67632579 9.05804532,4.57029887 L5.29408994,0.49886545 C5.23047379,0.435249303 5.13504957,0.392838538 5.03962535,0.392838538 C4.94420113,0.392838538 4.8593796,0.435249303 4.79576345,0.49886545 L1.08482153,4.57029887 C1,4.67632579 0.978794618,4.81416077 1.03180807,4.94139307 C1.08482153,5.06862536 1.20145113,5.1428442 1.33928612,5.1428442 L3.71428895,5.1428442 L3.71428895,18.3750028 C3.71428895,18.5658513 3.86272663,18.7142889 4.05357507,18.7142889 L6.08929178,18.7142889 Z" id="" fill="#D8D8D8" fill-rule="nonzero"></path>
                <circle id="Oval" fill="#4A90E2" cx="5" cy="19" r="5"></circle>
            </g>
        </g>
    </g>
</svg>