<?xml version="1.0" encoding="UTF-8"?>
<svg width="70px" height="70px" viewBox="0 0 70 70" version="1.1" xmlns="http://www.w3.org/2000/svg" xmlns:xlink="http://www.w3.org/1999/xlink">
    <!-- Generator: Sketch 61.2 (89653) - https://sketch.com -->
    <title>Panneau latéral / Utilisateurs / Avatars / Générique</title>
    <desc>Created with Sketch.</desc>
    <defs>
        <path d="M29.7545217,0.276782609 C46.1866957,0.276782609 59.5084348,13.6106957 59.5084348,30.0576522 C59.5084348,46.5046087 46.1866957,59.8385217 29.7545217,59.8385217 C13.3214783,59.8385217 -0.000260869565,46.5046087 -0.000260869565,30.0576522 C-0.000260869565,13.6106957 13.3214783,0.276782609 29.7545217,0.276782609" id="path-1"></path>
        <path d="M59.5084348,30.0576522 C59.5084348,46.5046087 46.1866957,59.8385217 29.7545217,59.8385217 C13.3214783,59.8385217 -0.000260869566,46.5046087 -0.000260869566,30.0576522 C-0.000260869566,13.6106957 13.3214783,0.276782609 29.7545217,0.276782609 C46.1866957,0.276782609 59.5084348,13.6106957 59.5084348,30.0576522 Z" id="path-3"></path>
    </defs>
    <g id="Panneau-latéral-/-Utilisateurs-/-Avatars-/-Générique" stroke="none" stroke-width="1" fill="none" fill-rule="evenodd">
        <g id="icone-homme" transform="translate(5.000000, 2.000000)">
            <g id="Group-9" stroke-width="1" fill-rule="evenodd">
                <mask id="mask-2" fill="white">
                    <use xlink:href="#path-1"></use>
                </mask>
                <use id="Mask" fill="#F5A623" xlink:href="#path-1"></use>
                <g id="Couleur/Secondaire" mask="url(#mask-2)" fill="#F5A623">
                    <rect id="Rectangle-3" x="0" y="0" width="60" height="60"></rect>
                </g>
            </g>
            <g id="Group-7" stroke-width="1" fill-rule="evenodd" transform="translate(0.000000, 5.806452)">
                <mask id="mask-4" fill="white">
                    <use xlink:href="#path-3"></use>
                </mask>
                <use id="Mask" fill="#F5A623" opacity="0" xlink:href="#path-3"></use>
                <ellipse id="Oval-14" fill="#B4915D" fill-rule="nonzero" mask="url(#mask-4)" cx="30.9677419" cy="49.3548387" rx="27.0967742" ry="16.4516129"></ellipse>
                <path d="M29.8348848,49.3870968 C23.9510958,49.3870968 17.492888,45.6887179 17.492888,39.6458277 C17.492888,36.2527185 19.149859,34.0485952 22.0827645,32.9174251 C24.1437968,32.1225211 26.3941521,31.9032258 30,31.9032258 C33.5776222,31.9032258 35.7632581,32.1213929 37.7638266,32.9220248 C40.5933719,34.054415 42.1768817,36.2578566 42.1768817,39.6458277 C42.1768817,45.6887179 35.7186738,49.3870968 29.8348848,49.3870968 Z" id="Oval-13" stroke="#F5A623" stroke-width="2" fill="#F1F2F7" fill-rule="nonzero" mask="url(#mask-4)"></path>
            </g>
            <path d="M30,52.2580645 C36.6102764,52.2580645 40.6451613,42.9145893 40.6451613,37.067068 C40.6451613,31.2195467 35.8791602,30.9677419 30,30.9677419 C24.1208398,30.9677419 19.3548387,31.2195467 19.3548387,37.067068 C19.3548387,42.9145893 23.3897236,52.2580645 30,52.2580645 Z" id="Oval-13" fill="#D3D3D6" fill-rule="nonzero"></path>
            <path d="M30,48.3712358 C35.8323924,48.3712358 44.516129,37.6127098 44.516129,28.3622829 C44.516129,19.1118559 38.0170367,11.6129032 30,11.6129032 C21.9829633,11.6129032 15.483871,19.1118559 15.483871,28.3622829 C15.483871,37.6127098 24.1676076,48.3712358 30,48.3712358 Z" id="Oval-12" fill="#F1F2F7" fill-rule="nonzero"></path>
            <path d="M21.2686538,21.4956542 C23.4661724,19.9447984 25.8612097,24.8993638 30.087362,24.8993638 C34.3135143,24.8993638 36.5957729,20.3354168 38.5091177,21.4956542 C39.7846808,22.2691458 40.0357921,23.9311828 39.2624515,26.4817651 C40.7781152,24.1501078 41.8869083,23.6226407 42.5888306,24.8993638 C43.2907529,26.1760868 43.2907529,29.9641585 42.5888306,36.2635787 C44.323545,33.9136049 45.1909022,29.5944575 45.1909022,23.3061366 C45.1909022,13.8736552 38.5727884,7.72773114 29.2114194,7.72773114 C19.8500504,7.72773114 14.3734249,15.2225617 14.3734249,21.9956549 C14.3734249,26.5110504 15.2831945,31.267025 17.1027337,36.2635787 C16.45907,29.7423696 16.5944337,25.954298 17.508825,24.8993638 C18.4232162,23.8444296 19.6764925,24.3718967 21.2686538,26.4817651 C19.8036415,24.191595 19.8036415,22.5295581 21.2686538,21.4956542 Z" id="Path-11" fill="#B67029" fill-rule="nonzero"></path>
            <polygon id="Path-12" fill="#B67029" fill-rule="nonzero" points="27.0967742 8.10789564 27.0967742 5.80645161 29.0000281 7.88228677 29.0000281 3.99491738 31.9282394 8.64053145 28.4431913 11.752773"></polygon>
        </g>
    </g>
</svg>