<?xml version="1.0" encoding="UTF-8"?>
<svg width="30px" height="30px" viewBox="0 0 30 30" version="1.1" xmlns="http://www.w3.org/2000/svg" xmlns:xlink="http://www.w3.org/1999/xlink">
    <!-- Generator: Sketch 61.2 (89653) - https://sketch.com -->
    <title>Icones / Point de vue</title>
    <desc>Created with Sketch.</desc>
    <g id="Symbols" stroke="none" stroke-width="1" fill="none" fill-rule="evenodd">
        <g id="Panneau-latéral-/-Utilisateurs-/-Point-de-vue" transform="translate(-54.000000, 0.000000)">
            <g id="Icones-/-Point-de-vue" transform="translate(54.000000, 0.000000)">
                <g id="--Point-de-vue">
                    <circle id="Oval-3" fill="#9B9B9B" cx="15" cy="15" r="15"></circle>
                    <g id="--oeil" transform="translate(6.428571, 8.571429)">
                        <path d="M16.8038107,5.45760437 C16.9405293,5.67244746 17.0088883,5.9068219 17.0088883,6.1607277 C17.0088883,6.41463349 16.9405293,6.64900793 16.8038107,6.86385102 C15.9639688,8.28962902 14.8213934,9.42243852 13.3760845,10.2622804 C11.9112442,11.1216532 10.3096854,11.5513398 8.57140845,11.5513398 C6.8331315,11.5513398 5.23157267,11.1216532 3.76673241,10.2622804 C2.32142351,9.42243852 1.1788481,8.28962902 0.339006207,6.86385102 C0.202287634,6.64900793 0.133928571,6.41463349 0.133928571,6.1607277 C0.133928571,5.9068219 0.202287634,5.67244746 0.339006207,5.45760437 C1.1788481,4.03182637 2.32142351,2.89901687 3.76673241,2.05917498 C5.23157267,1.19980217 6.8331315,0.770115549 8.57140845,0.770115549 C10.3096854,0.770115549 11.9112442,1.19980217 13.3760845,2.05917498 C14.8213934,2.89901687 15.9639688,4.03182637 16.8038107,5.45760437 Z" id="Path" fill="#F1F2F7"></path>
                        <path d="M8.57140845,10.1450932 C9.29406313,10.1450932 9.95812375,9.96442942 10.5635912,9.6031023 C11.1690587,9.24177519 11.6524559,8.7583779 12.0137831,8.15291045 C12.3751102,7.54744299 12.555774,6.88338237 12.555774,6.1607277 C12.555774,5.43807302 12.3751102,4.7740124 12.0137831,4.16854495 C11.6524559,3.56307749 11.1690587,3.07968021 10.5635912,2.71835309 C9.95812375,2.35702598 9.29406313,2.1763622 8.57140845,2.1763622 C7.84875378,2.1763622 7.18469316,2.35702598 6.5792257,2.71835309 C5.97375825,3.07968021 5.49036096,3.56307749 5.12903385,4.16854495 C4.76770674,4.7740124 4.58704295,5.43807302 4.58704295,6.1607277 C4.58704295,6.88338237 4.76770674,7.54744299 5.12903385,8.15291045 C5.49036096,8.7583779 5.97375825,9.24177519 6.5792257,9.6031023 C7.18469316,9.96442942 7.84875378,10.1450932 8.57140845,10.1450932 Z" id="" fill="#F1F2F7"></path>
                        <path d="M11.6182762,6.1607277 C11.6182762,7.00056959 11.3204252,7.71834132 10.7247236,8.31404288 C10.1290221,8.90974443 9.41125035,9.20759543 8.57140845,9.20759543 C7.73156656,9.20759543 7.01379483,8.90974443 6.41809328,8.31404288 C5.82239172,7.71834132 5.52454072,7.00056959 5.52454072,6.1607277 C5.52454072,5.65291656 5.64172794,5.17440177 5.87610238,4.72518424 C5.87610238,5.07674591 5.99817255,5.37459691 6.24231245,5.6187368 C6.48645234,5.8628767 6.78430334,5.98494687 7.135865,5.98494687 C7.48742666,5.98494687 7.78527767,5.8628767 8.02941756,5.6187368 C8.27355745,5.37459691 8.39562762,5.07674591 8.39562762,4.72518424 C8.39562762,4.37362258 8.27355745,4.07577158 8.02941756,3.83163169 C7.78527767,3.58749179 7.48742666,3.46542162 7.135865,3.46542162 C7.58508253,3.23104718 8.06359731,3.11385996 8.57140845,3.11385996 C9.41125035,3.11385996 10.1290221,3.41171096 10.7247236,4.00741252 C11.3204252,4.60311407 11.6182762,5.3208858 11.6182762,6.1607277 Z" id="Path" fill="#4A90E2"></path>
                    </g>
                </g>
            </g>
        </g>
    </g>
</svg>