<?xml version="1.0" encoding="UTF-8"?>
<svg width="60px" height="52px" viewBox="0 0 60 52" version="1.1" xmlns="http://www.w3.org/2000/svg" xmlns:xlink="http://www.w3.org/1999/xlink">
    <!-- Generator: Sketch 62 (91390) - https://sketch.com -->
    <title>Group 9</title>
    <desc>Created with Sketch.</desc>
    <defs>
        <path d="M41.6559043,20.5393957 C41.6559043,31.7781493 32.330687,40.8896565 20.8281652,40.8896565 C9.32503478,40.8896565 -0.000182608696,31.7781493 -0.000182608696,20.5393957 C-0.000182608696,9.30064203 9.32503478,0.189134783 20.8281652,0.189134783 C32.330687,0.189134783 41.6559043,9.30064203 41.6559043,20.5393957 Z" id="path-1"></path>
        <linearGradient x1="50%" y1="25.5055147%" x2="50%" y2="100%" id="linearGradient-3">
            <stop stop-color="#6BAAF4" offset="0%"></stop>
            <stop stop-color="#4A90E2" offset="100%"></stop>
        </linearGradient>
        <ellipse id="path-4" cx="21.6774194" cy="33.7258065" rx="18.9677419" ry="11.2419355"></ellipse>
        <filter x="-4.0%" y="-6.7%" width="107.9%" height="126.7%" filterUnits="objectBoundingBox" id="filter-5">
            <feOffset dx="0" dy="3" in="SourceAlpha" result="shadowOffsetOuter1"></feOffset>
            <feColorMatrix values="0 0 0 0 0.180392157   0 0 0 0 0.368627451   0 0 0 0 0.584313725  0 0 0 1 0" type="matrix" in="shadowOffsetOuter1"></feColorMatrix>
        </filter>
        <path d="M41.6559043,20.5393957 C41.6559043,31.7781493 32.330687,40.8896565 20.8281652,40.8896565 C9.32503478,40.8896565 -0.000182608696,31.7781493 -0.000182608696,20.5393957 C-0.000182608696,9.30064203 9.32503478,0.189134783 20.8281652,0.189134783 C32.330687,0.189134783 41.6559043,9.30064203 41.6559043,20.5393957 Z" id="path-6"></path>
        <ellipse id="path-8" cx="21.6774194" cy="33.7258065" rx="18.9677419" ry="11.2419355"></ellipse>
        <filter x="-4.0%" y="-6.7%" width="107.9%" height="126.7%" filterUnits="objectBoundingBox" id="filter-9">
            <feOffset dx="0" dy="3" in="SourceAlpha" result="shadowOffsetOuter1"></feOffset>
            <feColorMatrix values="0 0 0 0 0.180392157   0 0 0 0 0.368627451   0 0 0 0 0.584313725  0 0 0 1 0" type="matrix" in="shadowOffsetOuter1"></feColorMatrix>
        </filter>
    </defs>
    <g id="Groups" stroke="none" stroke-width="1" fill="none" fill-rule="evenodd">
        <g id="01.Groups_02.Composition_d.Invitation-modes" transform="translate(-761.000000, -826.000000)">
            <g id="Group-9" transform="translate(758.000000, 826.000000)">
                <g id="Perso-1-Copy-5" transform="translate(23.000000, 0.000000)">
                    <g id="Group-7">
                        <mask id="mask-2" fill="white">
                            <use xlink:href="#path-1"></use>
                        </mask>
                        <use id="Mask" fill="#F5A623" opacity="0" xlink:href="#path-1"></use>
                        <g id="Oval-14" mask="url(#mask-2)">
                            <use fill="black" fill-opacity="1" filter="url(#filter-5)" xlink:href="#path-4"></use>
                            <use fill="url(#linearGradient-3)" fill-rule="evenodd" xlink:href="#path-4"></use>
                        </g>
                        <path d="M20.8844194,33.0645161 C23.2949028,33.0645161 28.8238172,31.5085464 28.8238172,27.0913156 C28.8238172,22.6740848 24.3671554,22.483871 21,22.483871 C17.6328446,22.483871 12.9450216,22.6740848 12.9450216,27.0913156 C12.9450216,31.5085464 18.473936,33.0645161 20.8844194,33.0645161 Z M20.8844194,35.7096774 C15.8028883,35.7096774 10.2353442,32.5972616 10.2353442,27.0913156 C10.2353442,23.9257707 11.9365451,21.7166922 14.7347604,20.6631655 C16.4811857,20.0056372 18.235935,19.8387097 21,19.8387097 C23.7535067,19.8387097 25.4673617,20.005711 27.1813793,20.6753324 C29.9050559,21.7394009 31.5334946,23.9514093 31.5334946,27.0913156 C31.5334946,32.5972616 25.9659505,35.7096774 20.8844194,35.7096774 Z" id="Oval-13" fill="#2E5E95" fill-rule="nonzero" mask="url(#mask-2)"></path>
                        <path d="M20.8844194,33.0645161 C23.2949028,33.0645161 28.8238172,31.5085464 28.8238172,27.0913156 C28.8238172,22.6740848 24.3671554,22.483871 21,22.483871 C17.6328446,22.483871 12.9450216,22.6740848 12.9450216,27.0913156 C12.9450216,31.5085464 18.473936,33.0645161 20.8844194,33.0645161 Z" id="Oval-13" fill="#F1F2F7" fill-rule="nonzero" mask="url(#mask-2)"></path>
                    </g>
                    <path d="M21.5,33 C26.1572402,33 29,25.9782368 29,21.5837359 C29,17.1892351 25.6421356,17 21.5,17 C17.3578644,17 14,17.1892351 14,21.5837359 C14,25.9782368 16.8427598,33 21.5,33 Z" id="Oval-13" fill="#D3D3D6" fill-rule="nonzero"></path>
                    <path d="M21.5,28 C25.7187638,28 32,21.2682992 32,15.4802287 C32,9.69215822 27.2989899,5 21.5,5 C15.7010101,5 11,9.69215822 11,15.4802287 C11,21.2682992 17.2812362,28 21.5,28 Z" id="Oval-12" fill="#F1F2F7" fill-rule="nonzero"></path>
                    <path d="M15.6986262,10.6846068 C17.1960846,9.70634936 18.8281385,12.8316176 21.7079718,12.8316176 C24.5878052,12.8316176 26.1430081,9.95274577 27.4468215,10.6846068 C28.3160304,11.1725141 28.4871455,12.220903 27.9601669,13.8297734 C28.9929879,12.3589977 29.7485544,12.0262791 30.2268664,12.8316176 C30.7051784,13.636956 30.7051784,16.0264168 30.2268664,20 C31.4089555,18.5176705 32,15.7932148 32,11.8266329 C32,5.87676 27.4902087,2 21.1110769,2 C14.7319452,2 11,6.72763076 11,11 C11,13.8482462 11.6199457,16.8482462 12.859837,20 C12.4212243,15.8865156 12.5134654,13.4970548 13.1365604,12.8316176 C13.7596554,12.1661803 14.6136773,12.4988989 15.6986262,13.8297734 C14.7003207,12.3851673 14.7003207,11.3367784 15.6986262,10.6846068 Z" id="Path-11" fill="#2E5E95" fill-rule="nonzero"></path>
                    <polygon id="Path-12" fill="#2E5E95" fill-rule="nonzero" points="18 3.18101687 18 1.40105797 19.1817868 3.0065288 19.1817868 0 21 3.59296252 18.8360303 6"></polygon>
                </g>
                <g id="Perso-1-Copy-6" transform="translate(0.000000, 11.000000)">
                    <g id="Group-7">
                        <mask id="mask-7" fill="white">
                            <use xlink:href="#path-6"></use>
                        </mask>
                        <use id="Mask" fill="#F5A623" opacity="0" xlink:href="#path-6"></use>
                        <g id="Oval-14" mask="url(#mask-7)">
                            <use fill="black" fill-opacity="1" filter="url(#filter-9)" xlink:href="#path-8"></use>
                            <use fill="url(#linearGradient-3)" fill-rule="evenodd" xlink:href="#path-8"></use>
                        </g>
                        <path d="M20.8844194,33.0645161 C23.2949028,33.0645161 28.8238172,31.5085464 28.8238172,27.0913156 C28.8238172,22.6740848 24.3671554,22.483871 21,22.483871 C17.6328446,22.483871 12.9450216,22.6740848 12.9450216,27.0913156 C12.9450216,31.5085464 18.473936,33.0645161 20.8844194,33.0645161 Z M20.8844194,35.7096774 C15.8028883,35.7096774 10.2353442,32.5972616 10.2353442,27.0913156 C10.2353442,23.9257707 11.9365451,21.7166922 14.7347604,20.6631655 C16.4811857,20.0056372 18.235935,19.8387097 21,19.8387097 C23.7535067,19.8387097 25.4673617,20.005711 27.1813793,20.6753324 C29.9050559,21.7394009 31.5334946,23.9514093 31.5334946,27.0913156 C31.5334946,32.5972616 25.9659505,35.7096774 20.8844194,35.7096774 Z" id="Oval-13" fill="#2E5E95" fill-rule="nonzero" mask="url(#mask-7)"></path>
                        <path d="M20.8844194,33.0645161 C23.2949028,33.0645161 28.8238172,31.5085464 28.8238172,27.0913156 C28.8238172,22.6740848 24.3671554,22.483871 21,22.483871 C17.6328446,22.483871 12.9450216,22.6740848 12.9450216,27.0913156 C12.9450216,31.5085464 18.473936,33.0645161 20.8844194,33.0645161 Z" id="Oval-13" fill="#F1F2F7" fill-rule="nonzero" mask="url(#mask-7)"></path>
                    </g>
                    <path d="M21.5,33 C26.1572402,33 29,25.9782368 29,21.5837359 C29,17.1892351 25.6421356,17 21.5,17 C17.3578644,17 14,17.1892351 14,21.5837359 C14,25.9782368 16.8427598,33 21.5,33 Z" id="Oval-13" fill="#D3D3D6" fill-rule="nonzero"></path>
                    <path d="M21.5,28 C25.7187638,28 32,21.2682992 32,15.4802287 C32,9.69215822 27.2989899,5 21.5,5 C15.7010101,5 11,9.69215822 11,15.4802287 C11,21.2682992 17.2812362,28 21.5,28 Z" id="Oval-12" fill="#F1F2F7" fill-rule="nonzero"></path>
                    <path d="M15.6986262,10.6846068 C17.1960846,9.70634936 18.8281385,12.8316176 21.7079718,12.8316176 C24.5878052,12.8316176 26.1430081,9.95274577 27.4468215,10.6846068 C28.3160304,11.1725141 28.4871455,12.220903 27.9601669,13.8297734 C28.9929879,12.3589977 29.7485544,12.0262791 30.2268664,12.8316176 C30.7051784,13.636956 30.7051784,16.0264168 30.2268664,20 C31.4089555,18.5176705 32,15.7932148 32,11.8266329 C32,5.87676 27.4902087,2 21.1110769,2 C14.7319452,2 11,6.72763076 11,11 C11,13.8482462 11.6199457,16.8482462 12.859837,20 C12.4212243,15.8865156 12.5134654,13.4970548 13.1365604,12.8316176 C13.7596554,12.1661803 14.6136773,12.4988989 15.6986262,13.8297734 C14.7003207,12.3851673 14.7003207,11.3367784 15.6986262,10.6846068 Z" id="Path-11" fill="#2E5E95" fill-rule="nonzero"></path>
                    <polygon id="Path-12" fill="#2E5E95" fill-rule="nonzero" points="18 3.18101687 18 1.40105797 19.1817868 3.0065288 19.1817868 0 21 3.59296252 18.8360303 6"></polygon>
                </g>
            </g>
        </g>
    </g>
</svg>